<svg width="397" height="205" viewBox="0 0 397 205" fill="none" xmlns="http://www.w3.org/2000/svg">
<g clip-path="url(#clip0_6477_2)">
<path d="M11.01 175.35H7.29005V182.82H11.01C13.2 182.82 14.84 181.63 14.84 179.1C14.84 176.57 13.2 175.35 11.01 175.35ZM3.05005 171.3H11.08C15.88 171.3 19.22 174.2 19.22 179.11C19.22 184.02 15.87 186.88 11.08 186.88H7.29005V196.58H3.05005V171.3Z" fill="#3D5C6E"/>
<path d="M25.35 196.58H21.26V178.29H25.35V196.58ZM23.3 170.18C24.75 170.18 25.79 171.33 25.79 172.71C25.79 174.09 24.75 175.24 23.3 175.24C21.85 175.24 20.77 174.12 20.77 172.71C20.77 171.3 21.85 170.18 23.3 170.18Z" fill="#3D5C6E"/>
<path d="M30 196.58V181.78H26.91V178.29H30.22V174.01L34.09 173.12V178.29H37.4V181.78H34.09V196.58H30Z" fill="#3D5C6E"/>
<path d="M40.22 196.58V181.78H37.13V178.29H40.44V174.01L44.31 173.12V178.29H47.62V181.78H44.31V196.58H40.22Z" fill="#3D5C6E"/>
<path d="M58.8799 182.78C57.6899 182 56.1699 181.48 54.7499 181.48C53.1899 181.48 52.3699 182.26 52.3699 183.27C52.3699 184.05 52.8499 184.46 53.7499 185.02L56.6899 186.77C58.9599 188.15 59.7399 189.82 59.7399 191.6C59.7399 194.76 57.3199 196.99 53.1999 196.99C51.4499 196.99 49.6699 196.51 48.4399 195.95V191.75C49.3699 192.57 51.2999 193.46 52.9799 193.46C54.6599 193.46 55.5099 192.64 55.5099 191.56C55.5099 190.82 55.0999 190.22 53.9499 189.55L50.8299 187.69C48.9299 186.57 48.1899 184.94 48.1899 183.15C48.1899 180.1 50.4899 177.91 54.6599 177.91C56.1899 177.91 57.7499 178.24 58.8999 178.65V182.78H58.8799Z" fill="#3D5C6E"/>
<path d="M71.44 192.97C74.56 192.97 76.87 190.44 76.87 187.43C76.87 184.42 74.57 181.93 71.44 181.93C68.31 181.93 65.98 184.38 65.98 187.43C65.98 190.48 68.28 192.97 71.44 192.97ZM65.98 196.58H61.89V170.93H65.98V181.27C67.24 179.23 69.47 177.92 72.23 177.92C77.43 177.92 81.12 182.05 81.12 187.44C81.12 192.83 77.44 196.99 72.27 196.99C69.48 196.99 67.25 195.65 65.99 193.61V196.58H65.98Z" fill="#3D5C6E"/>
<path d="M94.8599 194.01C93.8899 195.76 92.2199 196.98 89.6899 196.98C85.6699 196.98 83.0699 193.97 83.0699 189.92V178.28H87.16V188.8C87.16 191.29 88.6099 192.96 90.9899 192.96C93.3699 192.96 94.7499 191.4 94.8599 189.05V178.27H98.91V196.56H94.8599V194V194.01Z" fill="#3D5C6E"/>
<path d="M106.27 180.52C107.13 179 108.61 177.92 110.77 177.92C111.25 177.92 111.85 177.96 112.29 178.03V182.38C111.62 182.08 110.77 181.9 109.84 181.9C107.61 181.9 106.35 183.46 106.27 185.8V196.58H102.18V178.29H106.27V180.52Z" fill="#3D5C6E"/>
<path d="M121.7 181.93C118.69 181.93 116.46 184.23 116.46 187.17C116.46 190.11 118.69 192.45 121.7 192.45C124.71 192.45 126.94 190.15 126.94 187.17C126.94 184.19 124.71 181.93 121.7 181.93ZM131.25 178.29V194.8C131.25 201.12 127.42 204.58 121.4 204.58C118.72 204.58 116.34 203.8 115.12 203.09V198.81C116.61 199.85 119.1 200.74 121.4 200.74C124.75 200.74 127.16 198.58 127.16 195.27V193.15C125.86 195.08 123.67 196.42 120.84 196.42C115.78 196.42 112.1 192.44 112.1 187.2C112.1 181.96 115.78 177.9 120.8 177.9C123.66 177.9 125.86 179.24 127.16 181.25V178.28H131.25V178.29Z" fill="#3D5C6E"/>
<path d="M138.61 180.89C139.61 179.1 141.29 177.92 143.74 177.92C147.79 177.92 150.39 180.89 150.39 184.98V196.58H146.3V186.02C146.3 183.57 144.85 181.89 142.47 181.89C140.09 181.89 138.68 183.45 138.6 185.79V196.57H134.51V170.92H138.6V180.88L138.61 180.89Z" fill="#3D5C6E"/>
<path d="M169.02 175.35H165.19V182.52H169.02C171.21 182.52 172.81 181.26 172.81 178.95C172.81 176.64 171.21 175.34 169.02 175.34M160.95 171.29H169.05C173.85 171.29 177.19 173.97 177.19 178.5C177.19 182.14 175 184.22 172.28 184.97C175.4 186.49 177.63 190.85 178.38 196.57H173.99C172.99 190.66 170.31 186.57 167.11 186.57H165.18V196.57H160.94V171.29H160.95Z" fill="#3D5C6E"/>
<path d="M182.85 185.65H192.7C192.63 183.09 190.58 181.34 187.9 181.34C185.22 181.34 183.11 183.27 182.84 185.65M182.88 188.81C183.29 191.45 185.48 193.27 188.46 193.27C190.88 193.27 193.26 192.38 194.85 191.26V195.31C193.29 196.2 190.91 196.98 188.16 196.98C182.77 196.98 178.75 193.04 178.75 187.43C178.75 181.82 182.66 177.91 187.93 177.91C193.2 177.91 196.63 181.89 196.63 186.72C196.63 187.43 196.52 188.28 196.37 188.8H182.87L182.88 188.81Z" fill="#3D5C6E"/>
<path d="M207.01 181.93C204 181.93 201.77 184.23 201.77 187.17C201.77 190.11 204 192.45 207.01 192.45C210.02 192.45 212.25 190.15 212.25 187.17C212.25 184.19 210.02 181.93 207.01 181.93ZM216.56 178.29V194.8C216.56 201.12 212.73 204.58 206.71 204.58C204.03 204.58 201.65 203.8 200.43 203.09V198.81C201.92 199.85 204.41 200.74 206.71 200.74C210.06 200.74 212.47 198.58 212.47 195.27V193.15C211.17 195.08 208.98 196.42 206.15 196.42C201.09 196.42 197.41 192.44 197.41 187.2C197.41 181.96 201.09 177.9 206.11 177.9C208.97 177.9 211.17 179.24 212.47 181.25V178.28H216.56V178.29Z" fill="#3D5C6E"/>
<path d="M223.92 196.58H219.83V178.29H223.92V196.58ZM221.88 170.18C223.33 170.18 224.37 171.33 224.37 172.71C224.37 174.09 223.33 175.24 221.88 175.24C220.43 175.24 219.35 174.12 219.35 172.71C219.35 171.3 220.43 170.18 221.88 170.18Z" fill="#3D5C6E"/>
<path d="M235.52 192.97C238.61 192.97 240.87 190.48 240.87 187.43C240.87 184.38 238.6 181.89 235.52 181.89C232.44 181.89 230.13 184.38 230.13 187.43C230.13 190.48 232.47 192.97 235.52 192.97ZM235.52 177.91C240.87 177.91 245.04 182.04 245.04 187.43C245.04 192.82 240.88 196.98 235.52 196.98C230.16 196.98 226 192.78 226 187.43C226 182.08 230.13 177.91 235.52 177.91Z" fill="#3D5C6E"/>
<path d="M251.17 180.89C252.14 179.1 253.85 177.92 256.3 177.92C260.35 177.92 262.95 180.89 262.95 184.98V196.58H258.86V186.02C258.86 183.57 257.41 181.89 255 181.89C252.59 181.89 251.24 183.45 251.17 185.79V196.57H247.08V178.28H251.17V180.88V180.89Z" fill="#3D5C6E"/>
<path d="M274.4 181.89C271.35 181.89 269.05 184.38 269.05 187.43C269.05 190.48 271.35 192.97 274.4 192.97C277.45 192.97 279.75 190.48 279.75 187.43C279.75 184.38 277.48 181.89 274.4 181.89ZM279.75 196.58V193.57C278.45 195.69 276.29 196.99 273.62 196.99C268.49 196.99 264.88 192.79 264.88 187.44C264.88 182.09 268.49 177.92 273.62 177.92C276.3 177.92 278.45 179.22 279.75 181.3V178.29H283.84V196.58H279.75Z" fill="#3D5C6E"/>
<path d="M291.23 170.92H287.14V196.57H291.23V170.92Z" fill="#3D5C6E"/>
<path d="M305.1 175.35H298.67V171.29H315.77V175.35H309.34V196.58H305.1V175.35Z" fill="#3D5C6E"/>
<path d="M320.15 180.52C321.01 179 322.49 177.92 324.65 177.92C325.13 177.92 325.73 177.96 326.17 178.03V182.38C325.5 182.08 324.65 181.9 323.72 181.9C321.49 181.9 320.23 183.46 320.15 185.8V196.58H316.06V178.29H320.15V180.52Z" fill="#3D5C6E"/>
<path d="M335.51 181.89C332.46 181.89 330.16 184.38 330.16 187.43C330.16 190.48 332.46 192.97 335.51 192.97C338.56 192.97 340.86 190.48 340.86 187.43C340.86 184.38 338.59 181.89 335.51 181.89ZM340.86 196.58V193.57C339.56 195.69 337.4 196.99 334.72 196.99C329.59 196.99 325.98 192.79 325.98 187.44C325.98 182.09 329.59 177.92 334.72 177.92C337.4 177.92 339.55 179.22 340.86 181.3V178.29H344.95V196.58H340.86Z" fill="#3D5C6E"/>
<path d="M352.31 180.89C353.28 179.1 354.99 177.92 357.44 177.92C361.49 177.92 364.09 180.89 364.09 184.98V196.58H360V186.02C360 183.57 358.55 181.89 356.14 181.89C353.73 181.89 352.38 183.45 352.31 185.79V196.57H348.22V178.28H352.31V180.88V180.89Z" fill="#3D5C6E"/>
<path d="M376.99 182.78C375.8 182 374.28 181.48 372.86 181.48C371.3 181.48 370.48 182.26 370.48 183.27C370.48 184.05 370.96 184.46 371.86 185.02L374.8 186.77C377.07 188.15 377.85 189.82 377.85 191.6C377.85 194.76 375.44 196.99 371.31 196.99C369.56 196.99 367.78 196.51 366.55 195.95V191.75C367.48 192.57 369.41 193.46 371.09 193.46C372.77 193.46 373.62 192.64 373.62 191.56C373.62 190.82 373.21 190.22 372.06 189.55L368.94 187.69C367.04 186.57 366.3 184.94 366.3 183.15C366.3 180.1 368.6 177.91 372.77 177.91C374.3 177.91 375.86 178.24 377.01 178.65V182.78H376.99Z" fill="#3D5C6E"/>
<path d="M384.09 196.58H380V178.29H384.09V196.58ZM382.05 170.18C383.5 170.18 384.54 171.33 384.54 172.71C384.54 174.09 383.5 175.24 382.05 175.24C380.6 175.24 379.52 174.12 379.52 172.71C379.52 171.3 380.6 170.18 382.05 170.18Z" fill="#3D5C6E"/>
<path d="M388.73 196.58V181.78H385.65V178.29H388.96V174.01L392.82 173.12V178.29H396.13V181.78H392.82V196.58H388.73Z" fill="#3D5C6E"/>
<path d="M73.4 44.05H62.71V65.65H73.4C79.71 65.65 84.41 62.21 84.41 54.9C84.41 47.59 79.71 44.05 73.4 44.05ZM50.51 32.33H73.61C87.41 32.33 97.03 40.71 97.03 54.9C97.03 69.09 87.41 77.36 73.61 77.36H62.7V105.41H50.51V32.34V32.33Z" fill="#F1B721"/>
<path d="M200.81 44.05H189.79V64.79H200.81C207.12 64.79 211.72 61.13 211.72 54.47C211.72 47.81 207.12 44.05 200.81 44.05ZM177.6 32.33H200.91C214.7 32.33 224.33 40.07 224.33 53.18C224.33 63.71 218.02 69.73 210.22 71.88C219.2 76.29 225.62 88.86 227.76 105.41H215.14C212.25 88.32 204.55 76.5 195.36 76.5H189.8V105.41H177.61V32.34L177.6 32.33Z" fill="#F1B721"/>
<path d="M321.15 44.05H302.65V32.34H351.85V44.05H333.34V105.42H321.15V44.05Z" fill="#F1B721"/>
<path d="M68.88 8.58C35.63 8.58 8.58 35.63 8.58 68.88C8.58 102.13 35.63 129.18 68.88 129.18C102.13 129.18 129.19 102.13 129.19 68.88C129.19 35.63 102.13 8.58 68.88 8.58ZM68.88 137.76C30.9 137.76 0 106.86 0 68.88C0 30.9 30.9 0 68.88 0C106.86 0 137.76 30.9 137.76 68.88C137.76 106.86 106.86 137.76 68.88 137.76Z" fill="#F1B721"/>
<path d="M198.06 8.58C164.81 8.58 137.76 35.63 137.76 68.88C137.76 102.13 164.81 129.18 198.06 129.18C231.31 129.18 258.36 102.13 258.36 68.88C258.36 35.63 231.31 8.58 198.06 8.58ZM198.06 137.76C160.08 137.76 129.18 106.86 129.18 68.88C129.18 30.9 160.08 0 198.06 0C236.04 0 266.94 30.9 266.94 68.88C266.94 106.86 236.04 137.76 198.06 137.76Z" fill="#F1B721"/>
<path d="M327.25 8.58C294 8.58 266.95 35.63 266.95 68.88C266.95 102.13 294 129.18 327.25 129.18C360.5 129.18 387.55 102.13 387.55 68.88C387.55 35.63 360.5 8.58 327.25 8.58ZM327.25 137.76C289.27 137.76 258.37 106.86 258.37 68.88C258.37 30.9 289.27 0 327.25 0C365.23 0 396.13 30.9 396.13 68.88C396.13 106.86 365.23 137.76 327.25 137.76Z" fill="#F1B721"/>
</g>
<defs>
<clipPath id="clip0_6477_2">
<rect width="396.13" height="204.57" fill="white"/>
</clipPath>
</defs>
</svg>
